<?xml version="1.0" encoding="utf-8"?>
<!-- Generator: Adobe Illustrator 16.0.0, SVG Export Plug-In . SVG Version: 6.00 Build 0)  -->
<!DOCTYPE svg PUBLIC "-//W3C//DTD SVG 1.1//EN" "http://www.w3.org/Graphics/SVG/1.1/DTD/svg11.dtd">
<svg version="1.1" id="Capa_1" xmlns="http://www.w3.org/2000/svg" xmlns:xlink="http://www.w3.org/1999/xlink" x="0px" y="0px"
	 width="1280px" height="100px" viewBox="0 0 1280 100" enable-background="new 0 0 1280 100" xml:space="preserve">
<ellipse fill="#EA96BF" cx="217.912" cy="49.511" rx="28.531" ry="28.648"/>
<line fill="none" stroke="#000000" stroke-miterlimit="10" x1="102.5" y1="50" x2="102.5" y2="52"/>
<path fill="none" stroke="#D9E021" stroke-miterlimit="10" d="M26.855,67.629c31.806-23.233,69.35-50.37,106.437-70.555
	c23.554-12.82,46.254-26.918,69.417-40.395c5.531-3.219,12.534-6.203,17.223-10.403c-35.983,20.75-65.939,58.052-89.952,91.302
	C113.747,60.057,96.222,86.497,90,113.999c12.725-18.137,26.594-35.621,30.355-58.289c4.471-26.948-4.523-55.326-21.842-75.949
	c-5.45,7.396-12.809,15.873-12.121,25.762c0.418,6.012,6.97,12.419,10.412,16.124c27.025,29.086,70.244,47.661,103.603,66.987
	c30.07,17.421,63.584,43.22,97.008,54.851c5.303,1.846,9.45,3.836,14.236,2.807c-1.486-16.125-13.568-30.339-24.234-41.429
	c-25.411-26.421-56.354-42.61-72.167-77c-9.229-20.074-11.329-39.77-12.155-61.644c-0.237-6.273,0.954-16.861-5.444-20.328
	c4.631,7.295,10.533,13.486,17.705,18.573c24.657,21.506,53.047,38.974,78.702,59.3c17.846,14.139,36.281,31.688,57.846,39.896
	c-4.056-15.473-44.418-10.989-53.459-10.855c-15.418,0.229-29.036,3.579-43.325,9.461c21.217,3.225,56.657-1.723,75.525-11.339
	c4.663-22.871-107.185-20.998-119.699-20.208c1.217,2.281,1.274,5.663,2.506,8.044"/>
<path fill="none" stroke="#39B54A" stroke-width="3" stroke-miterlimit="10" d="M350.567,36.701
	c20.622-8.908,42.024-15.988,63.809-21.738c17.453-4.606,38.316-11.684,56.709-10.079c-2.583,8.479-15.581,13.403-22.321,17.978
	c-13.23,8.978-21.389,20.74-30.978,33.187c-7.931,10.294-14.863,22.085-23.752,31.395c-3.515-2.507-6.742-3.981-10.925-6.046
	c-8.459-4.175-40.884-8.396-45.441-16.695c-4.45-8.102,7.185-17.695,12.192-22.074c19.287-16.867,40.635-19.355,65.415-23.596
	c17.184-2.941,43.99-11.146,57.89,4.179c7.633,8.415,6.996,18.533,9.197,28.807c2.734,12.766,10.949,26.599,22.833,33.203
	c20.508,11.398,41.803-7.67,51.006-25.174c4.633-8.812,9.924-18.521,3.655-27.668c-9.912-14.46-43.341-17.918-57.904-12.026
	c-16.718,6.763-80.875,52.975-36.359,66.638c26.447,8.117,64.605-11.59,86.21-25.582c7.555-4.894,9.589-8.38,14.248-14.59
	c14.162-18.88,36.205-26.942,54.943-41.841c-31.426,29.658-71.931,55.726-80.643,100.554c-4.137,21.29,6.722,17.7,23.255,9.254
	c21.047-10.751,38.156-26.521,56.994-40.431c11.096-8.192,22.997-15.364,30.205-27.498c5.231-8.805,11.213-22.232,10.023-32.696
	c-4.075,0.278-8.237,0.291-12.321-0.505c-14.693-6.509-28.724-14.251-42.093-23.227c-29.719-18.504-58.667-38.89-86.535-60.064
	c-28.308-21.508-74.875-52.334-75.629-92.91c31.557,19.476,57.216,52.802,78.035,82.938c17.483,25.308,32.072,53.549,44.112,81.833
	c6.706,15.754,16.381,35.08,18.327,52.391c1.186,10.55,0.174,22.177,0.667,32.816c0.66,14.25-0.295,28.17,4.327,41.9
	c4.464,13.26,5.712,10.379-2.058,20.996c-19.663-1.104-44.638-16.85-61.473-25.464c-18.204-9.314-26.865-12.783-30.506-31.814
	c-4.223-22.074-3.414-44.081-4.108-66.511c-0.506-16.363,2.948-42.86-10.819-54.893c-8.585-7.503-28.74-11.453-38.433-7.109"/>
<rect x="810" y="25" fill="#FFFF00" width="53" height="49"/>
<path fill="none" stroke="#39B54A" stroke-width="3" stroke-miterlimit="10" d="M694.896,56.289
	c16.338,2.612,45.881-6.386,56.393-8.569c61.268-12.727,122.271-27.16,183.254-41.212c40.761-9.393,81.157-18.904,121.156-30.579
	c-35.537,22.527-84.125,28.449-124.02,36.709c-53.667,11.112-107.18,22.94-160.849,34.033
	c-20.258,4.187-45.293,13.051-66.387,11.576c39.063-30.096,92.906-41.548,135.541-66.663c13.264-7.813,38.617-30.797,54.98-27.029
	c9.364,2.157,23.717,20.427,29.507,26.708c29.934,32.465,54.279,69.858,81.906,104.199c26.163,32.521,54.566,62.446,90.533,84.149
	c20.559,12.406,53.833,37.881,78.324,20.918c21.817-15.111,30.337-41.292,29.061-66.935c-1.074-21.57-7.872-41.155-5.146-62.948
	c1.339-10.709,13.309-39.516,6.94-50.441c-3.054-5.239-0.646-0.982-5.636-2.81c-6.255,2.448-12.396,5.158-18.421,8.13
	c-22.533,9.658-46.953,15.615-70.365,22.503c-25.81,6.853-51.189,15.038-76.14,24.555c-15.783,5.763-30.888,12.901-45.312,21.417
	c-0.534,1.341-0.66,4.996-0.533,6.569c3.796-0.618,6.517-2.532,10.333-4.013c31.914-12.378,66.966-16.981,100.06-25.175
	c43.912-10.871,87.662-23.327,130.847-36.54c13.147-4.022,24.958-9.904,37.169-17.729"/>
</svg>
